# Blender v2.70 (sub 0) OBJ File: ''
# www.blender.org
v 1.000000 1.000000 -1.000000
v 1.000000 -1.000000 -1.000000
v -1.000000 -1.000000 -1.000000
v -1.000000 1.000000 -1.000000
v 1.000000 0.999999 1.000000
v 0.999999 -1.000001 1.000000
v -1.000000 -1.000000 1.000000
v -1.000000 1.000000 1.000000
vt 1.000000 0.000000
vt 1.000000 1.000000
vt 0.000000 1.000000
vt 0.000000 0.000000
vn 0.000000 0.000000 1.000000
vn 0.000000 0.000000 -1.000000
vn -1.000000 0.000000 -0.000000
vn 0.000000 1.000000 0.000000
vn 1.000000 -0.000000 0.000000
vn -0.000000 -1.000000 -0.000000
vn -1.000000 0.000001 0.000000
s off
f 4/1/1 3/2/1 2/3/1
f 5/4/2 6/1/2 7/2/2
f 1/4/3 2/1/3 6/2/3
f 2/4/4 3/1/4 7/2/4
f 4/1/5 8/2/5 7/3/5
f 5/4/6 8/1/6 4/2/6
f 1/4/1 4/1/1 2/3/1
f 8/3/2 5/4/2 7/2/2
f 5/3/7 1/4/7 6/2/7
f 6/3/4 2/4/4 7/2/4
f 3/4/5 4/1/5 7/3/5
f 1/3/6 5/4/6 4/2/6
